<svg width="21" height="20" viewBox="0 0 21 20" fill="none" xmlns="http://www.w3.org/2000/svg">
<path d="M17.93 10.98C17.97 10.66 18 10.34 18 10C18 9.66 17.97 9.34 17.93 9.02L20.04 7.37C20.23 7.22 20.28 6.95 20.16 6.73L18.16 3.27C18.07 3.11 17.9 3.02 17.72 3.02C17.66 3.02 17.6 3.03 17.55 3.05L15.06 4.05C14.54 3.65 13.98 3.32 13.37 3.07L12.99 0.42C12.96 0.18 12.75 0 12.5 0H8.50002C8.25002 0 8.04002 0.18 8.01002 0.42L7.63002 3.07C7.02002 3.32 6.46002 3.66 5.94002 4.05L3.45002 3.05C3.39002 3.03 3.33002 3.02 3.27002 3.02C3.10002 3.02 2.93002 3.11 2.84002 3.27L0.840022 6.73C0.710022 6.95 0.770023 7.22 0.960023 7.37L3.07002 9.02C3.03002 9.34 3.00002 9.67 3.00002 10C3.00002 10.33 3.03002 10.66 3.07002 10.98L0.960023 12.63C0.770023 12.78 0.720022 13.05 0.840022 13.27L2.84002 16.73C2.93002 16.89 3.10002 16.98 3.28002 16.98C3.34002 16.98 3.40002 16.97 3.45002 16.95L5.94002 15.95C6.46002 16.35 7.02002 16.68 7.63002 16.93L8.01002 19.58C8.04002 19.82 8.25002 20 8.50002 20H12.5C12.75 20 12.96 19.82 12.99 19.58L13.37 16.93C13.98 16.68 14.54 16.34 15.06 15.95L17.55 16.95C17.61 16.97 17.67 16.98 17.73 16.98C17.9 16.98 18.07 16.89 18.16 16.73L20.16 13.27C20.28 13.05 20.23 12.78 20.04 12.63L17.93 10.98ZM15.95 9.27C15.99 9.58 16 9.79 16 10C16 10.21 15.98 10.43 15.95 10.73L15.81 11.86L16.7 12.56L17.78 13.4L17.08 14.61L15.81 14.1L14.77 13.68L13.87 14.36C13.44 14.68 13.03 14.92 12.62 15.09L11.56 15.52L11.4 16.65L11.2 18H9.80002L9.61002 16.65L9.45002 15.52L8.39002 15.09C7.96002 14.91 7.56002 14.68 7.16002 14.38L6.25002 13.68L5.19002 14.11L3.92002 14.62L3.22002 13.41L4.30002 12.57L5.19002 11.87L5.05002 10.74C5.02002 10.43 5.00002 10.2 5.00002 10C5.00002 9.8 5.02002 9.57 5.05002 9.27L5.19002 8.14L4.30002 7.44L3.22002 6.6L3.92002 5.39L5.19002 5.9L6.23002 6.32L7.13002 5.64C7.56002 5.32 7.97002 5.08 8.38002 4.91L9.44002 4.48L9.60002 3.35L9.80002 2H11.19L11.38 3.35L11.54 4.48L12.6 4.91C13.03 5.09 13.43 5.32 13.83 5.62L14.74 6.32L15.8 5.89L17.07 5.38L17.77 6.59L16.7 7.44L15.81 8.14L15.95 9.27ZM10.5 6C8.29002 6 6.50002 7.79 6.50002 10C6.50002 12.21 8.29002 14 10.5 14C12.71 14 14.5 12.21 14.5 10C14.5 7.79 12.71 6 10.5 6ZM10.5 12C9.40002 12 8.50002 11.1 8.50002 10C8.50002 8.9 9.40002 8 10.5 8C11.6 8 12.5 8.9 12.5 10C12.5 11.1 11.6 12 10.5 12Z" fill="#1A75FF"/>
</svg>
